HIERARCHY
ROOT hip
{
	OFFSET 0.000000 0.000000 0.000000 
	CHANNELS 6 Xposition Yposition Zposition Zrotation Xrotation Yrotation
	JOINT abdomen
	{
		OFFSET 0.000000 3.402643 0.000000 
		CHANNELS 3 Zrotation Xrotation Yrotation
		JOINT chest
		{
			OFFSET 0.000000 8.438565 -0.680529 
			CHANNELS 3 Zrotation Xrotation Yrotation
			JOINT neck
			{
				OFFSET 0.000000 10.207942 -0.272212 
				CHANNELS 3 Zrotation Xrotation Yrotation
				JOINT head
				{
					OFFSET 0.000000 3.130431 0.000000 
					CHANNELS 3 Zrotation Xrotation Yrotation
					End Site
					{
						OFFSET 0.000000 3.130435 0.000000 
					}
				}
			}
			JOINT lCollar
			{
				OFFSET 3.470700 6.669187 -0.816635 
				CHANNELS 3 Zrotation Xrotation Yrotation
				JOINT lShldr
				{
					OFFSET 3.198488 0.000000 0.000000 
					CHANNELS 3 Zrotation Xrotation Yrotation
					JOINT lForeArm
					{
						OFFSET 10.139888 0.000000 0.000000 
						CHANNELS 3 Zrotation Xrotation Yrotation
						JOINT lHand
						{
							OFFSET 8.370511 0.000000 0.000000 
							CHANNELS 3 Zrotation Xrotation Yrotation
							End Site
							{
								OFFSET 4.083176 0.000000 0.000000 
							}
						}
					}
				}
			}
			JOINT rCollar
			{
				OFFSET -3.470700 6.669187 -0.816635 
				CHANNELS 3 Zrotation Xrotation Yrotation
				JOINT rShldr
				{
					OFFSET -3.198488 0.000000 0.000000 
					CHANNELS 3 Zrotation Xrotation Yrotation
					JOINT rForeArm
					{
						OFFSET -10.139888 0.000000 0.000000 
						CHANNELS 3 Zrotation Xrotation Yrotation
						JOINT rHand
						{
							OFFSET -8.370511 0.000000 0.000000 
							CHANNELS 3 Zrotation Xrotation Yrotation
							End Site
							{
								OFFSET -4.083176 0.000000 0.000000 
							}
						}
					}
				}
			}
		}
	}
	JOINT lThigh
	{
		OFFSET 5.308129 -1.633274 1.361059 
		CHANNELS 3 Zrotation Xrotation Yrotation
		JOINT lShin
		{
			OFFSET -2.041588 -20.007561 0.000000 
			CHANNELS 3 Zrotation Xrotation Yrotation
			JOINT lFoot
			{
				OFFSET 0.000000 -19.190928 -1.224953 
				CHANNELS 3 Zrotation Xrotation Yrotation
				End Site
				{
					OFFSET 0.000000 -2.449906 4.627600 
				}
			}
		}
	}
	JOINT rThigh
	{
		OFFSET -5.308129 -1.633274 1.361059 
		CHANNELS 3 Zrotation Xrotation Yrotation
		JOINT rShin
		{
			OFFSET 2.041588 -20.007561 0.000000 
			CHANNELS 3 Zrotation Xrotation Yrotation
			JOINT rFoot
			{
				OFFSET 0.000000 -19.190928 -1.224953 
				CHANNELS 3 Zrotation Xrotation Yrotation
				End Site
				{
					OFFSET 0.000000 -2.449906 4.627600 
				}
			}
		}
	}
}
MOTION
Frames: 20
Frame Time: 0.033333
1.266424 48.012962 -4.572906 -0.000000 -0.000010 -0.000000 0.146548 -21.103453 0.384820 -0.289808 -12.255703 -0.139692 -1.010229 5.331203 0.054810 0.277336 9.619030 24.357954 -0.366621 1.042523 8.165366 -65.250229 13.348735 10.652349 18.000467 9.892080 -80.614014 76.762886 -8.639850 11.532447 3.712557 0.319514 -4.882586 62.123623 12.583113 -8.346384 -25.909107 17.705276 68.368477 -72.319977 0.748575 -19.499224 1.313071 -11.231120 0.722388 -2.284751 9.208986 -0.467239 0.324601 1.272946 0.877922 -5.818089 -11.088710 -1.615830 2.235706 9.258283 -0.043910 2.605506 0.966624 -0.854671 
1.254936 47.991764 -4.438659 -0.000000 -0.000010 -0.000000 0.114934 -20.830046 0.353388 -0.329697 -12.187303 -0.167313 -1.010229 5.331203 0.054810 0.277016 9.218644 16.020121 -0.255602 1.077963 8.282716 -65.521706 13.296626 10.971447 -4.515478 7.497865 -77.499527 76.714554 -8.649997 10.854940 3.616388 0.333254 -4.941611 62.521973 12.577731 -8.516389 -8.359843 11.853272 64.599312 -72.447906 0.797197 -18.463011 1.332490 -11.047638 0.768794 -2.293969 9.206084 -0.485894 0.295179 1.098493 0.824076 -5.977216 -11.010846 -1.250347 2.255958 9.307121 -0.444877 2.885832 0.905365 -0.859149 
1.241945 47.971760 -4.297617 -0.000000 -0.000010 -0.000000 0.093844 -20.517551 0.325861 -0.359550 -12.099376 -0.192613 -1.010229 5.331203 0.054810 0.276760 8.886617 6.949480 -0.200707 1.095745 8.370676 -65.715714 13.259588 11.200744 -8.995118 7.334359 -76.952766 76.666969 -8.666958 10.226589 3.549301 0.347064 -4.971213 62.787884 12.574514 -8.616393 -7.168616 11.882916 64.846405 -72.596306 0.768883 -17.455738 1.470656 -10.775120 0.757966 -2.304131 9.244795 -0.456342 0.243785 0.847087 0.709988 -5.863245 -10.845499 -1.152821 2.285058 9.390528 -0.446067 2.779308 0.567429 -0.988006 
1.227575 47.952908 -4.150402 -0.000000 -0.000010 -0.000000 0.072819 -20.156233 0.298530 -0.379373 -11.991932 -0.215607 -1.010229 5.331203 0.054810 0.276564 8.622946 -2.121544 -0.211487 1.094108 8.429277 -65.843529 13.231939 11.350092 9.990531 10.615087 -79.907791 76.622650 -8.672954 9.615276 3.509655 0.339539 -4.990921 62.932472 12.553583 -8.665737 -27.198000 18.949146 70.646118 -72.753464 0.698580 -16.465313 1.420233 -10.687584 0.693905 -2.263339 9.417989 -0.385637 0.243127 0.600681 0.648886 -5.905438 -10.905344 -1.225847 2.329858 9.952117 -0.440714 2.649184 0.244137 -0.874622 
1.211944 47.935085 -3.997616 -0.000000 -0.000010 -0.000000 0.062262 -19.765610 0.265206 -0.399167 -11.874717 -0.248155 -1.010229 5.331203 0.054810 0.276416 8.417870 -10.489685 -0.269819 1.085445 8.448783 -65.918472 13.218769 11.429809 45.326931 13.023146 -87.388550 76.589638 -8.683471 9.029602 3.508811 0.329799 -4.990914 62.958973 12.535690 -8.665130 -64.039658 24.613783 85.087738 -72.925369 0.561325 -15.517375 1.479639 -10.714109 0.763907 -2.297351 9.909824 -0.439701 0.312985 0.205064 0.773303 -5.940572 -11.232817 -1.770800 2.475426 11.072382 0.108673 2.505354 -0.304192 -0.872262 
1.195173 47.918243 -3.839850 -0.000000 -0.000010 -0.000000 0.041401 -19.345695 0.238324 -0.408943 -11.737988 -0.268810 -1.010229 5.331203 0.054810 0.276312 8.271390 -17.422516 -0.373205 1.050359 8.448639 -65.928543 13.208750 11.439375 85.191750 10.031158 -95.788254 76.553009 -8.689340 8.464166 3.527360 0.318974 -4.981058 62.875053 12.506929 -8.614119 -104.945053 20.130360 101.430748 -73.105087 0.367525 -14.573779 1.561242 -11.158904 0.765713 -2.458545 11.254055 -0.464765 0.275541 -0.551486 0.746092 -5.932419 -11.329047 -1.213766 2.392536 11.666715 -0.388137 2.657246 -0.723314 -0.866697 
1.177370 47.902325 -3.677679 -0.000000 -0.000010 -0.000000 0.020642 -18.886713 0.211763 -0.408727 -11.591507 -0.287206 -1.010229 5.331203 0.054810 0.276251 8.183499 -22.207296 -0.516138 1.019413 8.419147 -65.885887 13.213281 11.379336 117.413422 3.968909 -100.065468 76.522163 -8.697573 7.911417 3.573261 0.287973 -4.941789 62.694878 12.480836 -8.523174 -135.077347 10.075821 109.557999 -73.277657 0.133560 -13.657401 1.612045 -11.251593 0.762407 -2.564594 11.890676 -0.462297 0.316464 -1.099415 0.870421 -5.956118 -11.447748 -1.242387 2.499398 12.351327 -0.350789 2.546511 -1.250917 -0.915404 
1.158652 47.887249 -3.511664 -0.000000 -0.000010 -0.000000 0.010293 -18.408203 0.179031 -0.408500 -11.435261 -0.305600 -1.010229 5.331203 0.054810 0.276217 8.134674 -24.121065 -0.704065 0.962567 8.360165 -65.784523 13.227756 11.269557 131.876465 0.809989 -101.006638 76.475380 -8.707521 7.393918 3.638666 0.255364 -4.902417 62.436337 12.446289 -8.391954 -146.968613 5.080482 111.212936 -73.459938 -0.150968 -12.769775 1.661820 -11.269922 0.820757 -2.649224 12.451224 -0.480075 0.351673 -1.709980 0.923834 -5.947394 -11.478259 -1.205728 2.543028 12.861509 -0.377021 2.640197 -1.756313 -0.867224 
1.139121 47.872967 -3.342355 -0.000000 -0.000010 -0.000000 -0.000000 -17.900385 0.156250 -0.408249 -11.259484 -0.323854 -1.010229 5.331203 0.054810 0.276209 8.124906 -22.685516 -0.920809 0.902313 8.281514 -65.639671 13.243024 11.099547 121.908836 3.833004 -100.928391 76.447777 -8.707178 6.883024 3.723557 0.223085 -4.843454 62.089779 12.402926 -8.220480 -135.832535 10.237895 109.800316 -73.645309 -0.479733 -11.886357 1.711716 -11.336860 0.766240 -2.716208 13.011346 -0.323521 0.292761 -2.146920 0.819518 -5.946508 -11.532586 -1.221703 2.610857 13.462233 -0.289113 2.526791 -2.345685 -0.972365 
1.118883 47.859402 -3.170288 -0.000000 -0.000010 -0.000000 -0.020465 -17.373047 0.130604 -0.398050 -11.083723 -0.340262 -1.010229 5.331203 0.054810 0.276238 8.163970 -18.359493 -1.174551 0.827939 8.173326 -65.449089 13.273091 10.890022 94.144821 10.695728 -97.443359 76.419014 -8.716751 6.387986 3.817348 0.180466 -4.774697 61.678581 12.360878 -8.019106 -106.633942 20.577785 101.766754 -73.818405 -0.846901 -11.030460 1.761547 -11.403313 0.838585 -2.790569 13.641576 -0.400518 0.340628 -2.683434 0.879339 -5.929553 -11.547597 -1.798489 2.564756 13.962894 0.144439 2.353253 -2.858277 -0.789767 
1.098038 47.846504 -2.995987 -0.000000 -0.000010 -0.000000 -0.030609 -16.835934 0.098557 -0.387854 -10.898192 -0.356598 -1.010229 5.331203 0.054810 0.276285 8.232329 -11.797326 -1.447752 0.751801 8.055165 -65.209221 13.312914 10.630662 58.028008 15.371566 -88.635574 76.386543 -8.721180 5.913381 3.920958 0.137943 -4.696138 61.212605 12.320498 -7.787856 -66.763962 25.445490 85.219536 -73.989883 -1.245676 -10.191717 1.802063 -11.406807 0.845567 -2.805456 14.096392 -0.414607 0.396025 -3.156479 0.855451 -5.917003 -11.543041 -1.795371 2.601261 14.471673 0.166641 2.379616 -3.323668 -0.707673 
1.076688 47.834240 -2.819964 -0.000000 -0.000010 -0.000000 -0.040695 -16.279293 0.076477 -0.377664 -10.702898 -0.372873 -1.010229 5.331203 0.054810 0.276354 8.329983 -3.711865 -1.740331 0.675437 7.907489 -64.942558 13.353750 10.341143 25.302282 14.096618 -79.280556 76.369736 -8.730419 5.452708 4.044143 0.094821 -4.607738 60.693756 12.279095 -7.536662 -31.272907 20.172066 70.411087 -74.148117 -1.663281 -9.372517 1.851310 -11.364514 0.908297 -2.782955 14.478976 -0.413276 0.325508 -3.530213 0.803247 -5.918203 -11.498550 -1.790495 2.646288 14.871776 0.127198 2.301415 -3.843875 -0.755373 
1.054924 47.822529 -2.642727 -0.000000 -0.000010 -0.000000 -0.050723 -15.712882 0.054622 -0.367491 -10.507599 -0.389346 -1.010229 5.331203 0.054810 0.276444 8.456934 5.232829 -2.051203 0.588397 7.749786 -64.630951 13.403493 10.021774 8.158076 11.091886 -74.605133 76.328751 -8.731399 5.010295 4.166695 0.043042 -4.509610 60.130745 12.228261 -7.265306 -13.204972 13.780925 64.397995 -74.312195 -2.119255 -8.567998 1.892042 -11.340388 0.883646 -2.860302 14.931719 -0.407831 0.371757 -4.056497 0.858373 -5.878004 -11.508111 -1.784970 2.683217 15.369963 0.158303 2.283122 -4.332354 -0.758149 
1.032841 47.811344 -2.464772 -0.000000 -0.000010 -0.000000 -0.060703 -15.146472 0.023192 -0.347398 -10.302546 -0.394221 -1.010229 5.331203 0.054810 0.276550 8.603417 14.353161 -2.372030 0.502193 7.572357 -64.292587 13.455748 9.672244 13.371373 11.986264 -74.685043 76.310143 -8.731584 4.578804 4.299924 0.001407 -4.401686 59.546619 12.177337 -6.984075 -16.894539 14.847818 64.603531 -74.442390 -2.583195 -7.781225 1.940263 -11.304935 0.858819 -3.078208 15.408580 -0.351980 0.400721 -4.587057 0.945282 -5.879490 -11.473469 -1.791164 2.699908 15.803056 0.161947 2.211107 -4.801346 -0.792064 
1.010532 47.800644 -2.286589 -0.000000 -0.000010 -0.000000 -0.070631 -14.570304 0.001752 -0.337245 -10.087718 -0.400924 -1.010229 5.331203 0.054810 0.276679 8.779196 22.955814 -2.702981 0.417974 7.375209 -63.927353 13.510230 9.292528 34.981659 15.735340 -78.857620 76.284904 -8.736716 4.150187 4.432536 -0.050214 -4.293796 58.940487 12.136253 -6.683230 -36.780350 21.368656 69.990929 -74.577065 -3.070558 -7.008154 1.980430 -11.306242 0.884982 -3.074841 15.839420 -0.289128 0.432771 -4.905647 0.769932 -5.844757 -11.381279 -1.137662 2.741987 16.028631 -0.259871 2.340663 -5.155480 -0.937531 
0.988082 47.790375 -2.108668 -0.000000 -0.000010 -0.000000 -0.090579 -13.994121 -0.021919 -0.327110 -9.872886 -0.407651 -1.010229 5.331203 0.054810 0.276819 8.964742 30.367067 -3.033318 0.326343 7.177934 -63.533249 13.570838 8.912892 64.157791 18.210180 -86.502121 76.266235 -8.740327 3.743268 4.556451 -0.088611 -4.176236 58.321842 12.085299 -6.372263 -65.875748 26.881887 81.157898 -74.695290 -3.578773 -6.254124 2.029376 -11.227413 0.895568 -3.096968 16.141169 -0.357221 0.424480 -5.267131 0.868436 -5.845525 -11.336018 -1.142329 2.789721 16.426786 -0.262256 2.326646 -5.575246 -0.930830 
0.965582 47.780518 -1.931505 -0.000000 -0.000010 -0.000000 -0.100401 -13.427716 -0.052612 -0.316993 -9.658058 -0.404798 -1.010229 5.331203 0.054810 0.276969 9.160051 35.893398 -3.364232 0.238119 6.961032 -63.114376 13.633174 8.513048 90.700829 17.507942 -93.977669 76.242500 -8.744769 3.348113 4.680512 -0.126454 -4.048958 57.697189 12.043435 -6.071624 -93.991867 27.246254 93.305389 -74.797867 -4.077264 -5.517352 2.067628 -11.116513 0.950208 -2.960019 16.441797 -0.440915 0.367975 -5.732781 0.824779 -5.812808 -11.247108 -1.086748 2.793633 16.753208 -0.267814 2.236945 -6.032546 -0.956563 
0.943117 47.771030 -1.755594 -0.000000 -0.000010 -0.000000 -0.110191 -12.871077 -0.073392 -0.306901 -9.452993 -0.411734 -1.010229 5.331203 0.054810 0.277140 9.374893 38.870857 -3.687338 0.164482 6.734379 -62.676586 13.704632 8.113334 104.352875 16.507984 -97.477127 76.218971 -8.748970 2.952820 4.804101 -0.173493 -3.921712 57.090363 12.000253 -5.761077 -109.277084 25.747902 99.498856 -74.903526 -4.600663 -4.793869 2.108567 -11.054955 0.883101 -3.179747 16.781853 -0.350300 0.462867 -6.139385 0.849728 -5.790478 -11.158748 -1.081959 2.940233 17.022749 -0.191069 2.211744 -6.284938 -1.030479 
0.920777 47.761890 -1.581453 -0.000000 -0.000010 -0.000000 -0.119948 -12.314426 -0.103727 -0.296819 -9.238158 -0.399263 -1.010229 5.331203 0.054810 0.277320 9.599500 38.801395 -4.000118 0.084244 6.498024 -62.226749 13.765875 7.713074 98.594437 18.514997 -95.242500 76.201935 -8.751998 2.579279 4.909660 -0.200043 -3.794615 56.494980 11.968695 -5.450873 -105.104012 27.406328 97.022575 -74.984123 -5.112526 -4.083302 2.148240 -10.948850 0.870102 -3.166188 17.023727 -0.326000 0.431777 -6.434744 0.868813 -5.767473 -11.050468 -1.270314 2.833746 17.332628 -0.042742 2.129694 -6.723043 -1.014884 
0.898649 47.753078 -1.409622 -0.000000 -0.000010 -0.000000 -0.139659 -11.777305 -0.126162 -0.296640 -9.023322 -0.398136 -1.010229 5.331203 0.054810 0.277507 9.824107 36.095272 -4.294264 0.009330 6.261818 -61.767632 13.836252 7.312915 77.514122 21.017111 -87.293022 76.176765 -8.746902 2.213417 5.005045 -0.234423 -3.667588 55.922642 11.925518 -5.160500 -85.465668 29.724985 86.767914 -75.048019 -5.637650 -3.383923 2.176411 -10.828292 0.931851 -3.181419 17.298332 -0.345704 0.411822 -6.938286 0.791441 -5.745916 -10.954226 -1.548727 2.827355 17.593813 0.156782 1.976103 -7.014315 -0.934454 
